# xmcd CD database file
#
# Track frame offsets:
#	150
#	11445
#	27125
#	39676
#	51301
#	63909
#	77362
#	88600
#	99896
#	111105
#	123725
#	135035
#	147725
#	160371
#	174376
#	186220
#	199138
#	210170
#	218911
#	229744
#
# Disc length: 3241 seconds
#
# Revision: 0
# Processed by: cddbd v1.5.2PL0 Copyright (c) Steve Scherf et al.
# Submitted via: CDex 1.70beta2
#
DISCID=0a0ca714
DTITLE=Bo Diddley - Bo Diddley
DYEAR=2012
DGENRE=Blues
TTITLE0=Bo Diddley
TTITLE1=Cops and Robbers
TTITLE2=I'm A Man
TTITLE3=Little Girl
TTITLE4=You Don't Love Me (You Don't Care)
TTITLE5=The Clock Strikes Twelve
TTITLE6=The Great Grandfather
TTITLE7=Bring It To Jerome
TTITLE8=Limber
TTITLE9=Pretty Thing
TTITLE10=Diddy Wah Diddy
TTITLE11=Mumblin' Guitar
TTITLE12=Road Runner
TTITLE13=Befor You Accuse Me
TTITLE14=Spend My Life With You
TTITLE15=The Story Of Bo Diddley
TTITLE16=I'm Sorry
TTITLE17=Let Me In
TTITLE18=Love Me
TTITLE19=Bo Diddley Is Loose
EXTD=YEAR: 2012
EXTT0=
EXTT1=
EXTT2=
EXTT3=
EXTT4=
EXTT5=
EXTT6=
EXTT7=
EXTT8=
EXTT9=
EXTT10=
EXTT11=
EXTT12=
EXTT13=
EXTT14=
EXTT15=
EXTT16=
EXTT17=
EXTT18=
EXTT19=
PLAYORDER=
